<?xml version="1.0" standalone="no"?>
<!DOCTYPE svg PUBLIC "-//W3C//DTD SVG 20010904//EN"
 "http://www.w3.org/TR/2001/REC-SVG-20010904/DTD/svg10.dtd">
<svg version="1.0" xmlns="http://www.w3.org/2000/svg"
 width="1024.000000pt" height="768.000000pt" viewBox="0 0 1024.000000 768.000000"
 preserveAspectRatio="xMidYMid meet">

<g transform="translate(0.000000,768.000000) scale(0.100000,-0.100000)"
fill="#000000" stroke="none">
<path d="M0 3840 l0 -3840 5120 0 5120 0 0 3840 0 3840 -5120 0 -5120 0 0
-3840z m5470 3795 c163 -16 415 -54 445 -66 11 -4 74 -21 141 -38 172 -44 341
-100 474 -158 124 -54 364 -181 469 -248 67 -44 130 -84 139 -90 28 -17 81
-57 232 -173 146 -112 475 -436 463 -455 -3 -6 -1 -7 4 -4 6 4 45 -38 89 -96
42 -56 82 -106 89 -112 18 -16 105 -142 105 -152 0 -6 9 -18 20 -28 12 -10 18
-25 15 -32 -2 -8 -1 -12 3 -9 4 2 21 -19 37 -47 15 -29 31 -54 35 -57 8 -6 74
-126 107 -195 14 -27 36 -71 49 -98 14 -26 22 -52 18 -59 -4 -7 -3 -8 4 -4 7
4 15 -8 22 -33 6 -22 15 -43 21 -47 6 -3 8 -13 5 -21 -3 -8 -2 -12 2 -9 5 3
14 -12 21 -32 7 -20 19 -50 27 -67 26 -60 76 -221 77 -251 1 -18 5 -30 8 -28
10 6 31 -75 23 -89 -4 -6 -3 -8 1 -4 10 9 35 -65 35 -104 0 -14 4 -29 9 -35
16 -16 52 -192 54 -263 1 -38 5 -67 9 -65 9 6 21 -95 22 -187 1 -43 4 -75 7
-73 12 7 19 -123 18 -345 -1 -227 -19 -489 -32 -461 -4 8 -4 4 -1 -9 7 -26
-16 -212 -25 -206 -3 1 -6 -18 -6 -43 -1 -26 -11 -87 -23 -137 -13 -49 -26
-102 -29 -117 -3 -16 -9 -28 -13 -28 -4 0 -8 -6 -7 -12 1 -41 -4 -68 -13 -63
-5 3 -7 0 -4 -8 2 -7 -6 -45 -19 -83 -14 -38 -28 -82 -31 -99 -11 -52 -81
-232 -131 -340 -121 -258 -159 -332 -209 -409 -31 -47 -56 -90 -56 -95 0 -16
-57 -80 -65 -73 -5 4 -5 1 -1 -6 5 -8 2 -21 -7 -30 -8 -9 -21 -29 -28 -43 -8
-15 -27 -43 -44 -64 -16 -20 -68 -85 -115 -144 -48 -58 -108 -128 -134 -156
-27 -27 -67 -69 -89 -92 -22 -23 -45 -39 -50 -36 -6 3 -7 2 -4 -4 6 -10 -119
-142 -127 -133 -2 3 -19 -13 -37 -36 -19 -23 -41 -45 -51 -50 -9 -5 -50 -36
-92 -69 -112 -88 -150 -114 -158 -109 -5 3 -8 1 -8 -5 0 -11 -160 -117 -172
-113 -4 1 -8 -2 -8 -8 0 -5 -5 -10 -11 -10 -6 0 -31 -14 -56 -32 -26 -17 -52
-31 -60 -31 -7 0 -13 -4 -13 -8 0 -6 -202 -109 -215 -109 -2 0 -35 -14 -72
-31 -38 -18 -74 -32 -80 -32 -7 0 -13 -4 -13 -8 0 -4 -14 -11 -32 -14 -18 -4
-39 -11 -48 -16 -58 -33 -350 -107 -580 -148 -266 -47 -337 -54 -555 -54 -206
0 -337 12 -535 49 -41 8 -115 21 -165 29 -49 9 -109 22 -132 30 -24 8 -57 17
-75 20 -18 3 -38 11 -45 17 -7 6 -13 8 -13 5 0 -13 -212 60 -297 102 -23 12
-47 21 -52 21 -14 0 -85 33 -92 43 -3 5 -9 8 -13 8 -10 -1 -81 33 -84 42 -2 4
-10 7 -17 7 -21 0 -150 71 -147 81 1 5 -2 8 -6 7 -13 -5 -112 52 -112 64 0 6
-3 8 -6 5 -7 -6 -63 28 -75 46 -3 5 -10 9 -15 9 -17 1 -90 52 -189 131 -166
134 -194 159 -192 171 1 6 -3 10 -8 9 -23 -4 -320 304 -418 432 -4 6 -28 37
-55 71 -62 80 -74 96 -128 179 -48 72 -125 198 -137 225 -4 8 -18 33 -32 55
-14 22 -30 51 -36 65 -6 14 -15 33 -20 43 -6 10 -7 23 -3 30 4 7 4 9 -1 5 -13
-13 -97 166 -110 235 -3 11 -11 27 -19 36 -7 9 -17 27 -21 41 -4 14 -11 30
-15 35 -4 6 -11 26 -15 45 -4 19 -15 52 -25 72 -10 21 -23 61 -30 90 -7 29
-18 64 -25 78 -7 14 -15 43 -19 65 -4 22 -14 59 -22 83 -8 24 -11 54 -8 68 3
13 2 24 -4 24 -12 0 -15 12 -47 195 -14 82 -24 157 -22 167 3 10 2 16 -3 13
-9 -6 -17 63 -30 257 -6 83 -13 154 -16 159 -17 28 8 585 27 573 4 -2 5 5 2
16 -7 26 6 151 15 146 4 -2 8 26 9 63 1 36 11 100 22 141 11 41 23 92 26 113
3 20 10 37 16 37 5 0 7 11 3 26 -5 18 -3 25 4 20 6 -4 8 2 5 14 -3 12 0 20 6
20 7 0 10 4 7 9 -11 17 61 264 75 256 5 -4 6 1 3 10 -8 19 35 137 47 129 5 -3
6 2 3 11 -7 17 45 135 58 135 4 0 4 7 1 17 -5 12 -3 14 7 8 9 -5 11 -4 6 4
-10 15 141 324 154 316 6 -3 7 1 4 9 -4 9 1 18 10 22 9 3 13 10 11 15 -3 4 3
17 14 28 11 11 17 21 15 24 -8 7 132 223 200 309 34 43 74 95 89 115 66 88
294 334 307 330 4 -1 22 18 41 42 19 25 38 45 43 45 4 1 32 24 60 51 29 28 79
70 110 95 31 25 80 64 109 87 29 23 55 42 59 43 3 0 43 25 87 56 45 30 81 53
81 50 0 -3 12 6 26 19 15 14 30 25 35 25 4 0 42 20 83 45 42 25 79 45 81 45 3
0 50 22 105 49 55 28 100 47 100 43 0 -4 4 -2 8 4 18 26 389 152 542 184 30 6
64 15 75 20 30 13 202 39 365 56 80 7 154 16 165 18 52 9 305 4 435 -9z"/>
<path d="M4870 7605 c-207 -25 -318 -44 -440 -77 -41 -11 -100 -26 -130 -34
-52 -13 -211 -65 -255 -83 -11 -5 -51 -21 -90 -37 -38 -15 -127 -56 -196 -90
-328 -163 -598 -353 -869 -611 -48 -45 -91 -79 -95 -75 -5 4 -5 2 -1 -5 8 -15
-122 -155 -137 -146 -6 3 -7 1 -3 -6 5 -7 -6 -27 -26 -49 -61 -68 -206 -266
-283 -387 -42 -66 -81 -119 -87 -117 -5 1 -7 -2 -3 -8 4 -6 -15 -50 -41 -98
-231 -421 -352 -795 -439 -1357 -13 -84 -35 -383 -35 -480 0 -211 37 -585 76
-770 8 -38 17 -83 21 -100 3 -16 16 -69 29 -117 13 -48 24 -96 24 -107 0 -12
5 -21 10 -21 6 0 10 -13 10 -30 0 -16 5 -30 10 -30 6 0 8 -10 4 -24 -8 -31 6
-58 16 -31 4 10 6 -4 6 -32 -1 -27 4 -61 11 -74 6 -13 23 -58 38 -99 137 -384
382 -804 653 -1120 135 -157 411 -430 540 -533 335 -269 800 -503 1202 -607
608 -156 1086 -156 1700 -1 310 78 695 253 980 444 358 241 647 519 911 877
381 515 627 1153 710 1839 32 256 32 655 1 906 -28 223 -90 530 -125 615 -6
14 -11 30 -12 35 -3 24 -17 71 -25 86 -4 9 -14 41 -21 72 -8 32 -17 57 -21 57
-5 0 -8 7 -8 15 0 8 -4 23 -9 33 -9 18 -9 19 -69 167 -236 584 -680 1165
-1177 1539 -107 81 -288 202 -365 243 -30 17 -89 48 -130 71 -299 161 -715
291 -1095 342 -49 6 -119 16 -155 21 -143 22 -404 19 -610 -6z m616 -15 c579
-53 1105 -246 1574 -576 156 -110 303 -235 308 -264 2 -13 1 -13 -10 1 -7 9
-27 18 -45 22 -28 6 -32 3 -42 -25 -10 -29 -9 -35 21 -65 51 -52 23 -39 -70
35 -112 88 -284 205 -396 271 -109 64 -287 154 -292 148 -3 -3 32 -23 76 -46
469 -239 914 -630 1222 -1072 347 -497 558 -1055 635 -1679 25 -200 24 -687 0
-875 -111 -842 -454 -1561 -1012 -2120 -521 -523 -1162 -840 -1882 -931 -174
-22 -543 -22 -718 0 -545 68 -1015 251 -1460 568 -478 340 -884 835 -1129
1375 -227 503 -330 987 -330 1548 0 268 11 399 54 650 157 918 666 1743 1405
2280 130 94 123 99 -12 8 -218 -147 -516 -424 -687 -638 -401 -503 -652 -1083
-755 -1740 -28 -177 -34 -193 -92 -265 -27 -34 -53 -76 -56 -92 -10 -48 -23
-42 -23 12 0 84 29 333 56 478 205 1118 865 2065 1802 2587 398 221 867 365
1317 404 134 12 417 12 541 1z m1865 -967 c13 -16 12 -17 -3 -4 -10 7 -18 15
-18 17 0 8 8 3 21 -13z m-5381 -3964 c0 -20 152 -353 211 -461 108 -199 288
-456 431 -617 64 -73 53 -78 -13 -7 -54 58 -87 77 -50 29 12 -16 35 -48 52
-73 l30 -45 -36 40 c-104 115 -254 333 -363 531 -72 129 -180 353 -211 439
-13 33 -28 74 -35 90 -39 91 -42 100 -26 90 6 -3 10 -11 10 -16z"/>
<path d="M4875 7365 c-823 -91 -1584 -519 -2125 -1194 -410 -511 -660 -1104
-756 -1791 -21 -155 -30 -620 -15 -788 107 -1157 702 -2141 1641 -2712 95 -58
369 -194 376 -187 8 7 -18 22 -91 52 -38 16 -82 37 -97 47 -14 10 -29 18 -32
18 -3 0 -56 31 -118 68 -199 121 -353 236 -542 407 -133 120 -356 375 -328
375 6 0 12 -4 14 -9 6 -18 161 -186 267 -290 112 -109 258 -233 377 -319 162
-117 431 -273 564 -326 25 -10 63 -26 85 -36 22 -10 49 -21 60 -24 11 -3 52
-14 90 -25 86 -25 86 -25 78 -3 -5 13 -1 12 19 -5 13 -13 26 -23 29 -23 2 0 4
24 3 53 0 43 -4 53 -20 55 -10 2 -23 9 -29 14 -7 8 -4 9 10 4 78 -28 362 -84
515 -101 961 -109 1871 233 2549 960 117 125 271 325 359 465 32 52 65 98 73
102 8 4 35 16 62 27 26 11 47 26 47 33 0 7 -33 31 -73 54 -39 22 -115 67 -167
99 -52 32 -252 154 -445 270 -324 196 -947 577 -1698 1036 -170 104 -313 187
-318 184 -5 -4 -9 -50 -10 -103 -1 -85 -13 -216 -18 -202 -1 3 -6 69 -10 148
-5 79 -13 147 -17 152 -5 5 -43 -13 -85 -38 -41 -26 -185 -114 -320 -196 -277
-170 -1048 -641 -1184 -724 -223 -137 -1026 -623 -1072 -649 l-43 -24 0 33 c0
41 16 99 30 108 14 9 108 86 414 340 358 298 599 498 1080 895 219 182 471
390 560 463 89 73 166 136 172 138 7 3 40 -12 76 -34 64 -39 197 -112 205
-112 8 0 -52 47 -154 119 -56 40 -105 80 -108 90 -3 10 8 130 25 267 17 137
39 321 50 409 11 88 56 450 100 805 44 355 85 679 90 720 5 41 18 149 29 240
11 91 25 197 30 235 6 39 13 108 17 155 7 95 21 129 62 159 51 36 53 34 56
-74 2 -55 7 -799 11 -1653 7 -1240 11 -1555 21 -1559 12 -4 147 66 331 173 51
30 97 54 103 54 6 0 176 -136 378 -302 202 -166 466 -383 587 -482 121 -100
301 -248 401 -331 99 -82 252 -208 339 -280 174 -143 467 -385 503 -416 12
-10 26 -19 31 -19 31 0 182 369 250 613 74 261 118 583 124 889 3 144 9 180
22 139 3 -12 26 -44 50 -72 37 -43 44 -59 50 -111 19 -159 -41 -616 -116 -898
-130 -484 -365 -943 -682 -1332 -51 -63 -55 -70 -17 -28 219 236 490 691 625
1050 276 733 308 1548 91 2312 -170 596 -521 1182 -950 1585 -532 499 -1169
794 -1860 862 -145 15 -481 12 -631 -4z m191 -280 c5 -20 -40 -391 -86 -715
-5 -36 -16 -117 -25 -180 -26 -199 -35 -262 -51 -375 -8 -60 -22 -162 -29
-225 -8 -63 -21 -162 -29 -220 -20 -146 -103 -773 -127 -960 -11 -85 -22 -162
-25 -172 -3 -9 -60 -63 -127 -119 -67 -57 -194 -164 -282 -238 -88 -75 -256
-216 -373 -314 -179 -149 -572 -480 -1226 -1030 -152 -128 -170 -139 -191
-111 -19 27 -125 289 -125 312 0 10 -4 22 -9 27 -7 8 -40 125 -65 230 -32 134
-39 164 -41 185 -1 14 -12 90 -24 170 -93 642 -10 1288 244 1880 95 222 248
479 419 705 255 336 572 609 961 827 199 111 491 226 696 272 35 8 87 20 114
27 80 19 275 47 337 48 53 1 58 -1 64 -24z m649 -5 c422 -71 800 -223 1159
-468 77 -52 144 -98 150 -103 265 -211 401 -346 567 -564 144 -188 318 -490
402 -695 11 -25 25 -58 31 -75 7 -16 23 -57 36 -90 12 -33 26 -69 30 -80 4
-11 15 -45 25 -75 121 -391 170 -806 145 -1213 -20 -326 -64 -564 -165 -897
-33 -108 -142 -371 -168 -405 -14 -18 -27 -9 -282 205 -147 124 -298 250 -335
280 -37 30 -150 125 -251 210 -310 263 -977 820 -1150 962 -154 125 -144 110
-169 288 -11 85 -25 196 -30 245 -6 50 -12 101 -16 114 -3 14 -14 95 -24 180
-11 86 -31 242 -45 346 -35 257 -43 322 -60 450 -28 213 -95 723 -125 945 -52
390 -54 409 -40 435 7 13 20 26 29 29 27 8 159 -3 286 -24z m1692 -805 c146
-159 296 -371 421 -592 58 -101 155 -303 149 -309 -2 -3 -23 35 -46 83 -126
261 -373 622 -557 814 -24 26 -44 50 -44 53 0 7 -7 17 -45 60 -14 16 -25 31
-25 33 0 10 70 -57 147 -142z m-2061 -3106 c43 -17 85 -35 93 -40 9 -4 70 -31
136 -59 66 -28 170 -73 230 -100 61 -26 137 -59 170 -73 33 -14 116 -50 185
-80 69 -30 199 -86 290 -125 91 -38 192 -82 225 -97 33 -14 74 -33 90 -40 17
-7 91 -39 165 -70 74 -31 168 -72 208 -91 41 -19 76 -34 79 -34 2 0 28 -11 56
-24 29 -13 93 -40 142 -61 50 -20 113 -47 140 -60 28 -12 85 -37 127 -56 43
-19 77 -38 78 -44 1 -33 -234 -360 -252 -349 -7 5 -8 3 -3 -5 8 -14 -33 -63
-46 -55 -5 3 -6 -1 -3 -9 8 -21 -260 -286 -408 -405 -465 -370 -953 -575
-1533 -643 -109 -13 -473 -16 -570 -6 -669 73 -1230 328 -1728 783 -203 186
-517 578 -517 646 0 32 90 85 255 150 28 10 100 41 160 68 127 56 441 192 595
257 58 24 123 52 145 63 22 10 83 36 135 58 86 35 200 84 510 219 58 25 119
51 135 58 17 7 66 29 110 48 44 19 134 58 200 86 66 29 134 59 150 67 57 27
130 53 152 53 12 1 56 -13 99 -30z"/>
<path d="M4865 7045 c-49 -8 -112 -19 -140 -24 -27 -6 -67 -13 -88 -16 -21 -3
-46 -9 -55 -14 -9 -5 -37 -12 -62 -16 -40 -6 -170 -50 -225 -76 -11 -5 -49
-18 -84 -30 -35 -11 -122 -49 -192 -84 -71 -35 -129 -61 -129 -59 0 3 -7 -2
-16 -10 -8 -9 -20 -13 -26 -10 -7 4 -8 2 -4 -4 3 -6 -3 -16 -14 -22 -11 -6
-20 -8 -20 -5 0 3 -6 1 -12 -5 -7 -5 -42 -29 -78 -51 -102 -65 -151 -100 -205
-143 -27 -23 -46 -34 -41 -26 4 8 -1 5 -11 -7 -32 -38 -126 -112 -135 -107 -4
3 -8 1 -8 -4 0 -13 -180 -187 -191 -184 -5 1 -8 -1 -8 -5 3 -20 -2 -34 -11
-28 -5 3 -10 2 -10 -2 0 -11 -39 -60 -97 -124 -24 -25 -43 -49 -43 -52 0 -23
-84 -119 -95 -109 -4 4 -6 2 -5 -3 4 -20 0 -36 -8 -31 -5 3 -9 0 -9 -7 0 -7
-13 -32 -30 -57 -66 -98 -93 -142 -93 -153 0 -7 -11 -25 -25 -41 -25 -29 -156
-289 -181 -358 -24 -70 -66 -158 -75 -158 -5 0 -6 -6 -4 -13 7 -17 -30 -119
-40 -109 -4 4 -5 2 -2 -5 7 -11 -17 -126 -32 -153 -5 -9 -12 -39 -16 -68 -4
-29 -11 -50 -16 -46 -5 3 -7 -1 -4 -8 3 -7 0 -36 -5 -63 -6 -28 -21 -116 -33
-197 -12 -80 -25 -150 -29 -154 -5 -4 -8 -12 -8 -18 0 -6 5 -4 11 4 8 12 9 9
5 -10 -21 -81 -28 -406 -14 -565 27 -287 90 -623 153 -808 9 -26 13 -53 9 -59
-4 -6 -3 -8 4 -4 6 4 17 -16 27 -51 9 -32 21 -63 25 -68 5 -6 18 -36 30 -68
12 -33 28 -69 34 -83 l13 -23 28 29 c16 16 30 28 33 26 2 -3 11 3 21 12 29 29
201 174 282 239 42 34 80 66 84 72 3 6 11 8 17 5 7 -4 8 -2 4 4 -6 10 27 36
46 37 3 0 10 4 15 9 5 5 2 6 -7 2 -8 -5 -2 3 15 17 16 14 33 23 37 21 4 -2 10
1 14 7 5 8 3 9 -7 4 -22 -13 64 62 206 180 72 59 166 138 210 175 158 135 189
160 195 160 3 0 28 21 56 48 27 26 92 82 144 124 52 42 115 95 139 117 24 23
48 38 55 34 6 -3 8 -3 4 2 -7 7 301 276 319 278 4 1 19 14 31 29 13 16 29 25
35 21 7 -3 9 -3 5 1 -7 9 120 121 136 121 5 0 11 27 13 60 4 69 25 243 53 430
10 72 24 183 31 249 7 65 17 123 23 130 10 10 14 43 16 129 0 20 4 37 8 37 4
0 6 18 4 40 -3 26 0 40 8 40 8 0 9 10 5 30 -4 20 -3 30 5 30 8 0 10 8 7 22 -9
32 35 378 47 371 5 -4 6 -1 2 6 -12 18 4 152 17 144 6 -3 7 -1 3 6 -10 15 4
162 14 156 5 -3 6 3 4 12 -8 30 53 516 76 608 5 22 10 61 10 88 0 26 5 47 11
47 5 0 7 5 4 10 -9 15 6 151 16 144 5 -3 5 5 0 18 -10 29 -50 32 -176 13z"/>
<path d="M5467 7038 c-17 -13 -18 -20 -8 -73 11 -60 43 -300 84 -620 11 -93
21 -193 22 -222 0 -28 3 -49 6 -47 9 5 30 -216 22 -229 -3 -5 -1 -7 5 -3 11 6
25 -86 26 -171 1 -22 4 -39 7 -37 4 2 10 -36 14 -84 4 -48 9 -103 10 -122 2
-19 8 -56 14 -81 6 -26 15 -86 21 -135 5 -49 17 -141 25 -204 9 -63 20 -149
25 -190 23 -192 41 -334 56 -430 8 -58 17 -122 21 -144 3 -23 17 -50 34 -69
16 -16 29 -33 29 -36 0 -3 14 -14 31 -23 17 -10 28 -21 25 -26 -2 -4 4 -9 15
-9 21 -2 85 -62 81 -76 -1 -5 1 -6 6 -3 5 3 19 -5 33 -17 13 -13 33 -29 45
-37 20 -14 134 -113 176 -152 10 -10 21 -18 24 -17 3 0 37 -29 75 -65 38 -36
72 -66 75 -66 3 0 15 -11 26 -25 11 -14 25 -25 33 -25 7 0 29 -18 49 -40 20
-22 36 -38 36 -36 0 2 19 -14 42 -35 24 -22 46 -39 50 -39 12 0 47 -37 42 -44
-2 -3 -1 -4 2 -2 6 5 106 -74 152 -120 13 -13 37 -29 53 -36 16 -7 29 -19 29
-25 0 -7 5 -13 10 -13 11 0 36 -21 115 -97 24 -24 48 -43 54 -43 5 0 14 -6 18
-14 4 -8 25 -28 45 -44 21 -16 35 -32 33 -36 -3 -3 -2 -4 1 -2 3 3 36 -20 73
-50 36 -30 71 -58 76 -62 6 -5 18 -19 28 -33 10 -13 15 -17 11 -9 -4 9 1 7 13
-5 22 -22 21 -21 178 -150 60 -49 127 -108 149 -130 23 -21 42 -37 43 -35 1 3
18 -10 38 -27 41 -36 55 -41 55 -17 0 9 5 12 12 8 7 -4 8 -3 4 4 -8 13 33 114
43 108 4 -3 8 5 8 17 1 12 7 23 13 25 5 2 8 8 4 13 -3 5 -1 9 4 9 6 0 8 9 5
20 -3 12 1 22 10 26 9 3 13 13 9 26 -3 14 -1 19 6 14 7 -4 10 -2 7 6 -5 14 19
91 26 84 2 -2 5 6 5 19 1 13 9 48 18 77 37 126 55 198 66 266 7 39 15 70 19
68 4 -3 5 8 3 25 -2 16 0 35 6 42 5 6 13 51 17 99 4 49 10 90 15 93 4 3 6 14
3 25 -3 11 0 20 6 20 7 0 9 34 4 112 -4 66 -3 109 3 106 5 -4 9 62 9 158 0 90
-4 164 -8 164 -6 0 -6 37 -2 85 5 60 4 85 -4 85 -7 0 -11 15 -11 33 1 17 -2
48 -5 67 -3 19 -9 55 -12 80 -3 25 -9 47 -13 50 -3 3 -12 39 -19 80 -6 41 -17
77 -23 81 -6 4 -8 16 -5 28 3 12 1 19 -4 15 -5 -3 -9 10 -9 29 0 19 -7 48 -16
66 -9 17 -13 39 -10 47 3 8 2 12 -4 9 -6 -3 -10 1 -10 11 0 19 -50 155 -115
309 -61 145 -161 342 -220 434 -27 41 -48 81 -48 88 0 7 -2 11 -5 9 -2 -3 -19
16 -36 42 -18 26 -49 71 -68 99 -20 29 -43 60 -52 69 -9 8 -14 20 -10 25 3 5
1 8 -4 7 -5 -2 -47 42 -93 97 -80 95 -223 237 -319 317 -25 21 -79 65 -120 99
-41 34 -77 65 -80 68 -3 3 -11 7 -19 9 -16 3 -81 50 -98 71 -7 8 -13 11 -13 7
0 -4 -12 2 -26 13 -15 12 -31 21 -35 21 -5 0 -38 18 -74 40 -83 51 -175 100
-187 100 -6 0 -22 8 -36 19 -15 10 -38 22 -52 26 -14 4 -45 16 -69 27 -24 11
-51 21 -60 23 -32 8 -107 36 -131 49 -44 25 -127 46 -355 89 -178 34 -275 42
-298 25z"/>
<path d="M5184 3125 c-10 -8 -26 -15 -35 -15 -9 0 -27 -9 -41 -19 -13 -11 -53
-29 -89 -41 -35 -12 -95 -37 -133 -56 -39 -19 -73 -34 -78 -34 -4 0 -33 -12
-65 -26 -31 -15 -62 -27 -68 -28 -7 -1 -24 -9 -38 -19 -15 -9 -30 -17 -35 -17
-5 0 -47 -18 -94 -39 -47 -22 -136 -60 -199 -86 -125 -51 -150 -62 -255 -111
-39 -18 -83 -36 -98 -40 -14 -3 -29 -10 -32 -15 -3 -5 -11 -9 -19 -9 -7 0 -47
-16 -88 -35 -41 -19 -77 -35 -81 -35 -3 0 -43 -18 -90 -40 -46 -22 -89 -40
-95 -40 -7 0 -30 -9 -51 -20 -22 -11 -40 -17 -40 -13 0 5 -4 3 -8 -4 -4 -6
-70 -37 -147 -68 -77 -31 -145 -61 -151 -66 -6 -5 -58 -29 -115 -53 -57 -23
-139 -57 -181 -75 -48 -20 -83 -42 -93 -58 -10 -15 -12 -22 -4 -18 9 6 10 3 5
-11 -4 -10 -4 -15 0 -11 4 4 23 -17 42 -46 19 -28 63 -90 98 -137 35 -47 64
-89 64 -95 2 -16 22 -35 30 -30 5 3 25 -18 44 -47 35 -52 193 -220 272 -289
140 -121 364 -282 467 -336 26 -14 47 -29 47 -34 0 -5 3 -8 8 -7 13 4 82 -34
82 -45 0 -6 3 -8 6 -5 3 3 51 -15 107 -42 99 -46 327 -128 417 -150 25 -6 54
-15 65 -19 47 -21 127 -37 325 -64 212 -29 520 -29 740 0 161 22 291 47 325
63 11 6 35 11 53 12 17 1 32 6 32 10 0 4 7 8 16 8 21 0 226 70 239 81 5 5 17
9 26 9 9 0 34 9 56 20 49 24 125 58 138 60 6 1 17 7 25 13 28 22 80 48 80 40
0 -4 4 -3 8 3 4 7 48 35 97 64 50 29 125 78 169 109 43 31 80 54 81 51 2 -3
12 6 24 20 11 14 20 22 21 18 0 -4 10 3 23 15 61 58 233 202 240 199 4 -1 6 1
5 5 -2 5 24 35 57 68 33 34 49 47 35 30 l-25 -30 32 29 c18 16 31 31 29 34 -3
2 32 47 76 100 82 99 113 133 88 97 -12 -17 -12 -18 0 -7 8 7 15 20 15 30 0 9
6 16 13 14 8 -1 11 1 9 5 -7 12 49 84 57 75 4 -4 7 -2 6 3 -5 23 1 36 13 29 6
-4 9 -4 6 0 -4 4 10 35 31 69 22 37 33 63 26 66 -6 2 -33 14 -61 26 -27 13
-65 29 -82 36 -18 8 -33 17 -33 20 0 3 -7 6 -15 6 -15 0 -134 52 -145 63 -3 3
-12 6 -21 8 -9 1 -38 13 -65 27 -27 14 -55 25 -62 25 -7 0 -20 4 -30 9 -9 5
-28 13 -42 19 -14 6 -54 24 -90 40 -36 16 -91 40 -122 53 -32 12 -58 26 -58
30 0 4 -6 6 -12 6 -7 -1 -35 9 -63 22 -27 13 -59 27 -70 31 -11 5 -47 21 -80
35 -33 15 -89 38 -125 52 -87 34 -149 63 -155 73 -3 4 -17 11 -32 15 -15 3
-50 17 -78 29 -27 13 -97 42 -155 65 -58 23 -130 54 -160 69 -30 14 -57 27
-60 27 -3 1 -23 9 -45 18 -162 70 -191 82 -195 87 -3 3 -12 6 -20 8 -8 2 -46
17 -85 34 -38 17 -88 39 -110 48 -22 10 -58 26 -80 36 -22 10 -43 18 -47 19
-3 0 -10 3 -14 8 -13 13 -89 8 -110 -8z"/>
<path d="M6497 7149 c7 -7 15 -10 18 -7 3 3 -2 9 -12 12 -14 6 -15 5 -6 -5z"/>
<path d="M7260 6800 c0 -5 5 -10 11 -10 5 0 7 5 4 10 -3 6 -8 10 -11 10 -2 0
-4 -4 -4 -10z"/>
<path d="M7217 6766 c-4 -10 2 -20 14 -27 18 -9 20 -8 17 12 -4 27 -23 36 -31
15z"/>
<path d="M5180 5563 c0 -126 -2 -500 -4 -833 -3 -391 -1 -524 4 -375 8 269 13
1435 5 1435 -3 0 -5 -102 -5 -227z"/>
<path d="M5171 3984 c0 -11 3 -14 6 -6 3 7 2 16 -1 19 -3 4 -6 -2 -5 -13z"/>
<path d="M4635 3601 c-269 -169 -602 -379 -740 -466 -137 -87 -302 -190 -365
-230 -63 -40 -164 -105 -225 -144 -60 -39 -118 -74 -127 -78 -10 -3 -18 -10
-18 -15 0 -6 15 -1 33 10 17 11 105 64 195 118 584 355 1752 1094 1752 1109 0
3 -3 5 -7 5 -5 0 -228 -139 -498 -309z"/>
<path d="M5290 3896 c26 -24 1077 -687 1550 -979 336 -206 363 -223 430 -262
81 -48 80 -47 80 -42 0 6 -171 115 -675 431 -33 20 -130 82 -215 136 -288 183
-359 228 -820 514 -113 70 -224 141 -247 157 -23 16 -46 29 -51 29 -5 0 -15 7
-22 15 -7 8 -20 15 -28 15 -14 0 -14 -2 -2 -14z"/>
<path d="M3105 2635 c-22 -13 -37 -25 -33 -25 9 0 78 41 78 46 0 6 -3 5 -45
-21z"/>
<path d="M7489 1443 l-24 -28 28 24 c25 23 32 31 24 31 -2 0 -14 -12 -28 -27z"/>
<path d="M4050 669 c76 -34 373 -129 400 -128 14 0 21 2 15 4 -5 1 -30 8 -55
15 -25 7 -54 16 -65 20 -11 4 -56 19 -100 33 -44 14 -111 37 -149 51 -80 30
-111 33 -46 5z"/>
<path d="M4390 655 c0 -8 5 -15 10 -15 6 0 10 5 10 11 0 6 7 9 15 5 8 -3 15
-1 15 4 0 6 -11 10 -25 10 -16 0 -25 -6 -25 -15z"/>
<path d="M4490 530 c8 -5 26 -9 40 -9 23 0 23 1 5 9 -11 5 -29 9 -40 9 -17 1
-17 -1 -5 -9z"/>
<path d="M4590 510 c0 -5 10 -10 23 -10 18 0 19 2 7 10 -19 13 -30 13 -30 0z"/>
<path d="M2749 6553 c-13 -16 -12 -17 4 -4 9 7 17 15 17 17 0 8 -8 3 -21 -13z"/>
</g>
</svg>
